<svg width="14" height="14" viewBox="0 0 14 14" fill="none" xmlns="http://www.w3.org/2000/svg">
<mask id="path-1-inside-1_250_30" fill="white">
<path fill-rule="evenodd" clip-rule="evenodd" d="M6.41303 4.5C6.07445 5.93335 4.78679 7 3.25 7C1.45507 7 0 5.54493 0 3.75C0 1.95507 1.45507 0.5 3.25 0.5C4.78679 0.5 6.07445 1.56665 6.41303 3H12C12.4142 3 12.75 3.33579 12.75 3.75C12.75 4.16421 12.4142 4.5 12 4.5H6.41303ZM1.25 10.25C1.25 9.83579 1.58579 9.5 2 9.5H7.58697C7.92555 8.06665 9.21321 7 10.75 7C12.5449 7 14 8.45507 14 10.25C14 12.0449 12.5449 13.5 10.75 13.5C9.21321 13.5 7.92555 12.4334 7.58697 11H2C1.58579 11 1.25 10.6642 1.25 10.25Z"/>
</mask>
<path fill-rule="evenodd" clip-rule="evenodd" d="M6.41303 4.5C6.07445 5.93335 4.78679 7 3.25 7C1.45507 7 0 5.54493 0 3.75C0 1.95507 1.45507 0.5 3.25 0.5C4.78679 0.5 6.07445 1.56665 6.41303 3H12C12.4142 3 12.75 3.33579 12.75 3.75C12.75 4.16421 12.4142 4.5 12 4.5H6.41303ZM1.25 10.25C1.25 9.83579 1.58579 9.5 2 9.5H7.58697C7.92555 8.06665 9.21321 7 10.75 7C12.5449 7 14 8.45507 14 10.25C14 12.0449 12.5449 13.5 10.75 13.5C9.21321 13.5 7.92555 12.4334 7.58697 11H2C1.58579 11 1.25 10.6642 1.25 10.25Z" fill="#A8A8A8"/>
<path d="M6.41303 4.5V3.5H5.62173L5.43982 4.27011L6.41303 4.5ZM6.41303 3L5.43982 3.22989L5.62173 4H6.41303V3ZM7.58697 9.5V10.5H8.37827L8.56018 9.72989L7.58697 9.5ZM7.58697 11L8.56018 10.7701L8.37827 10H7.58697V11ZM3.25 8C5.26095 8 6.94348 6.60431 7.38625 4.72989L5.43982 4.27011C5.20542 5.26239 4.31263 6 3.25 6V8ZM-1 3.75C-1 6.09721 0.90279 8 3.25 8V6C2.00736 6 1 4.99264 1 3.75H-1ZM3.25 -0.5C0.90279 -0.5 -1 1.40279 -1 3.75H1C1 2.50736 2.00736 1.5 3.25 1.5V-0.5ZM7.38625 2.77011C6.94348 0.895687 5.26095 -0.5 3.25 -0.5V1.5C4.31263 1.5 5.20542 2.23761 5.43982 3.22989L7.38625 2.77011ZM12 2H6.41303V4H12V2ZM13.75 3.75C13.75 2.7835 12.9665 2 12 2V4C11.8619 4 11.75 3.88807 11.75 3.75H13.75ZM12 5.5C12.9665 5.5 13.75 4.7165 13.75 3.75H11.75C11.75 3.61193 11.8619 3.5 12 3.5V5.5ZM6.41303 5.5H12V3.5H6.41303V5.5ZM2 8.5C1.0335 8.5 0.25 9.2835 0.25 10.25H2.25C2.25 10.3881 2.13807 10.5 2 10.5V8.5ZM7.58697 8.5H2V10.5H7.58697V8.5ZM8.56018 9.72989C8.79458 8.73761 9.68737 8 10.75 8V6C8.73905 6 7.05652 7.39569 6.61375 9.27011L8.56018 9.72989ZM10.75 8C11.9926 8 13 9.00736 13 10.25H15C15 7.90279 13.0972 6 10.75 6V8ZM13 10.25C13 11.4926 11.9926 12.5 10.75 12.5V14.5C13.0972 14.5 15 12.5972 15 10.25H13ZM10.75 12.5C9.68737 12.5 8.79458 11.7624 8.56018 10.7701L6.61375 11.2299C7.05652 13.1043 8.73905 14.5 10.75 14.5V12.5ZM2 12H7.58697V10H2V12ZM0.25 10.25C0.25 11.2165 1.0335 12 2 12V10C2.13807 10 2.25 10.1119 2.25 10.25H0.25Z" fill="#A8A8A8" mask="url(#path-1-inside-1_250_30)"/>
</svg>
