<svg width="27" height="27" viewBox="0 0 27 27" fill="none" xmlns="http://www.w3.org/2000/svg">
<path d="M13.5 1V2.38889M13.5 24.6111V26M26 13.5H24.6111M2.38889 13.5H1M22.3389 22.3389L21.3569 21.3569M5.64306 5.64306L4.66111 4.66111M22.3389 4.66111L21.3569 5.64306M5.64306 21.3569L4.66111 22.3389M19.0556 13.5C19.0556 14.9734 18.4702 16.3865 17.4284 17.4284C16.3865 18.4702 14.9734 19.0556 13.5 19.0556C12.0266 19.0556 10.6135 18.4702 9.57163 17.4284C8.52976 16.3865 7.94444 14.9734 7.94444 13.5C7.94444 12.0266 8.52976 10.6135 9.57163 9.57163C10.6135 8.52976 12.0266 7.94444 13.5 7.94444C14.9734 7.94444 16.3865 8.52976 17.4284 9.57163C18.4702 10.6135 19.0556 12.0266 19.0556 13.5V13.5Z" stroke="white" stroke-width="2" stroke-linecap="round" stroke-linejoin="round"/>
</svg>
